<?xml version="1.0" encoding="UTF-8"?>
<svg id="Layer_1" data-name="Layer 1" xmlns="http://www.w3.org/2000/svg" viewBox="0 0 320.26 315.32">
  <defs>
    <style>
      .cls-1 {
        fill: #65b3e3;
      }

      .cls-1, .cls-2 {
        fill-rule: evenodd;
      }

      .cls-3 {
        fill: #f15f22;
      }

      .cls-2 {
        fill: #a6d05c;
      }
    </style>
  </defs>
  <path class="cls-3" d="m79.27,187.5c-6.95-.19-12.53-5.89-12.55-12.89-.01-6.08,4.18-11.2,9.85-12.59.98-.25,2-.39,3.07-.39,7.15-.01,12.96,5.77,12.98,12.92.01,7.15-5.77,12.96-12.91,12.97-.15,0-.28,0-.43-.01Z"/>
  <path class="cls-3" d="m320.26,123.45v170.25c0,11.94-14.54,21.61-32.42,21.61h-64.94v-36.45c0-15.1-12.24-27.33-27.33-27.33H0v-50.9l24.83-.05s.06-.01.09-.01l54.73-.12h.06c3.79-.01,7.39-.84,10.62-2.3,8.99-4.08,15.23-13.14,15.21-23.65-.04-14.29-11.65-25.85-25.94-25.82h-3.04s-26.27.07-26.27.07l-48.34.12H0v-25.42c0-11.94,14.51-21.64,32.43-21.64h255.41c17.15,0,31.23,8.9,32.35,20.17.05.48.07.97.07,1.46Z"/>
  <path class="cls-3" d="m267.74,271.53v43.78H47.58C21.29,315.32,0,303.7,0,289.35v-50.64h234.92c18.13,0,32.83,14.7,32.83,32.83Z"/>
  <path class="cls-1" d="m224.44,28.56l-109.52,25.23-96.18,22.16-3.46.79.38-3.8,3.85-1.89,17.32-8.58,2.8-1.35L113.2,24.69l35.51-17.55s0,0,.01,0l2.9-1.43s.01,0,.02-.01C160.34,1.67,169.93-.39,179.78.06c20.18.93,36.53,12.21,44.65,28.49Z"/>
  <path class="cls-2" d="m283.25,91.94l-2.15.11H13.58l.47-4.85,15.15-3.5,85.12-19.6,56.57-13.03,28.99-6.68,12.59-2.9,9.26-2.13c1.63-.24,3.28-.42,4.92-.52l.4,6.17-.39-6.17c.69-.04,1.39-.07,2.08-.09,1.43-.04,2.86-.02,4.3.04,29.29,1.35,50.52,24.51,50.21,53.15Z"/>
</svg>